<svg width="22" height="21" viewBox="0 0 22 21" fill="none" xmlns="http://www.w3.org/2000/svg">
<path d="M3.97501 4.56511C4.7241 4.5 5.67151 4.5 6.94436 4.5H8.72214C11.2113 4.5 12.4558 4.5 13.4065 4.98693C14.2428 5.41524 14.9227 6.09868 15.3488 6.93929C15.8333 7.89494 15.8333 9.14596 15.8333 11.648V14.0594C15.8333 14.3093 15.8333 14.4342 15.8283 14.5398C15.7506 16.1899 14.7869 17.6034 13.4036 18.3113L14.7748 19.2893C15.6698 19.9277 16.8458 19.0058 16.4374 17.986C16.148 17.2636 16.6807 16.4779 17.4598 16.4779H18.0616C20.1446 16.4779 21.8333 14.7916 21.8333 12.7114V8.48893C21.8333 5.69254 21.8333 4.29435 21.2883 3.22627C20.8089 2.28676 20.044 1.52292 19.1032 1.04421C18.0336 0.5 16.6335 0.5 13.8333 0.5H11.8333C9.03299 0.5 7.63286 0.5 6.5633 1.04421C5.62249 1.52292 4.85759 2.28676 4.37822 3.22627C4.18113 3.61254 4.05532 4.04198 3.97501 4.56511Z" fill="#9DB2CE"/>
<path fill-rule="evenodd" clip-rule="evenodd" d="M14.4094 7.65232C14.8333 8.49554 14.8333 9.59938 14.8333 11.8071V13.9348C14.8333 14.1552 14.8333 14.2655 14.8289 14.3586C14.7341 16.3891 13.1315 18.0136 11.1283 18.1097C11.0364 18.1141 10.9151 18.1141 10.6724 18.1141L10.6102 18.1142C9.81664 18.1193 9.04366 18.3704 8.395 18.8337L8.35375 18.8635L6.32318 20.3337C5.62708 20.8377 4.71236 20.1098 5.03006 19.3048C5.25511 18.7345 4.84076 18.1141 4.23479 18.1141H3.76676C2.14663 18.1141 0.833252 16.7828 0.833252 15.1406V11.8071C0.833252 9.59938 0.833252 8.49554 1.25712 7.65232C1.62996 6.9106 2.22488 6.30757 2.95662 5.92964C3.7885 5.5 4.87749 5.5 7.05547 5.5H8.61103C10.789 5.5 11.878 5.5 12.7099 5.92964C13.4416 6.30757 14.0365 6.9106 14.4094 7.65232ZM4.83325 13.5C5.38554 13.5 5.83325 13.0523 5.83325 12.5C5.83325 11.9477 5.38554 11.5 4.83325 11.5C4.28097 11.5 3.83325 11.9477 3.83325 12.5C3.83325 13.0523 4.28097 13.5 4.83325 13.5ZM8.83325 12.5C8.83325 13.0523 8.38554 13.5 7.83325 13.5C7.28097 13.5 6.83325 13.0523 6.83325 12.5C6.83325 11.9477 7.28097 11.5 7.83325 11.5C8.38554 11.5 8.83325 11.9477 8.83325 12.5ZM10.8333 13.5C11.3855 13.5 11.8333 13.0523 11.8333 12.5C11.8333 11.9477 11.3855 11.5 10.8333 11.5C10.281 11.5 9.83325 11.9477 9.83325 12.5C9.83325 13.0523 10.281 13.5 10.8333 13.5Z" fill="#9DB2CE"/>
</svg>
