<svg width="25" height="25" viewBox="0 0 25 25" fill="none" xmlns="http://www.w3.org/2000/svg">
<path d="M20.4869 10.5V14.5C20.4847 15.2721 20.3028 16.0332 19.9557 16.7229C19.6086 17.4126 19.1057 18.0121 18.4869 18.474V15.5C18.4846 13.6442 17.7463 11.8651 16.4341 10.5529C15.1218 9.24064 13.3427 8.50238 11.4869 8.5H5.48694C5.28694 8.5 5.08694 8.513 4.89494 8.53C5.28085 7.63171 5.92135 6.86609 6.73739 6.32764C7.55342 5.78918 8.50927 5.50147 9.48694 5.5H15.4869C16.8125 5.50159 18.0834 6.02888 19.0207 6.96622C19.9581 7.90356 20.4854 9.17441 20.4869 10.5ZM12.0809 19.077C11.8952 19.263 11.6746 19.4105 11.4318 19.5111C11.189 19.6118 10.9288 19.6636 10.6659 19.6636C10.4031 19.6636 10.1429 19.6118 9.90006 19.5111C9.65726 19.4105 9.43669 19.263 9.25094 19.077L8.77494 18.597L2.86594 23.725C3.65717 24.2286 4.57505 24.4973 5.51294 24.5H11.5129C12.8385 24.4984 14.1094 23.9711 15.0467 23.0338C15.9841 22.0964 16.5114 20.8256 16.5129 19.5V15.5C16.5075 15.2316 16.4804 14.964 16.4319 14.7L12.0809 19.077ZM15.6319 12.677L10.6699 17.671L10.1949 17.192C9.84111 16.835 9.36547 16.6249 8.8633 16.6038C8.36113 16.5827 7.86952 16.752 7.48694 17.078L1.40894 22.343C0.825956 21.5096 0.513172 20.5171 0.512939 19.5V15.5C0.514527 14.1744 1.04182 12.9036 1.97916 11.9662C2.9165 11.0289 4.18734 10.5016 5.51294 10.5H11.5129C12.3245 10.501 13.1236 10.6996 13.8412 11.0786C14.5588 11.4575 15.1734 12.0054 15.6319 12.675V12.677ZM5.48694 14.6C5.48694 14.4022 5.42829 14.2089 5.31841 14.0444C5.20853 13.88 5.05235 13.7518 4.86962 13.6761C4.6869 13.6004 4.48583 13.5806 4.29185 13.6192C4.09787 13.6578 3.91969 13.753 3.77983 13.8929C3.63998 14.0327 3.54474 14.2109 3.50615 14.4049C3.46757 14.5989 3.48737 14.8 3.56306 14.9827C3.63875 15.1654 3.76692 15.3216 3.93137 15.4315C4.09582 15.5414 4.28916 15.6 4.48694 15.6C4.75216 15.6 5.00651 15.4946 5.19405 15.3071C5.38158 15.1196 5.48694 14.8652 5.48694 14.6ZM19.4869 0.5H13.4869C12.5112 0.502378 11.5576 0.790514 10.7439 1.32882C9.9301 1.86712 9.29184 2.63201 8.90794 3.529C9.09894 3.514 9.29194 3.5 9.48694 3.5H15.4869C17.3427 3.50238 19.1218 4.24064 20.4341 5.55288C21.7463 6.86512 22.4846 8.64422 22.4869 10.5V13.474C23.1057 13.0121 23.6086 12.4126 23.9557 11.7229C24.3028 11.0332 24.4847 10.2721 24.4869 9.5V5.5C24.4854 4.17441 23.9581 2.90356 23.0207 1.96622C22.0834 1.02888 20.8125 0.501588 19.4869 0.5Z" fill="#9DB2CE"/>
</svg>
