<svg width="20" height="20" viewBox="0 0 20 20" fill="none" xmlns="http://www.w3.org/2000/svg">
<path d="M12.6366 8.71663C12.6822 9.16321 12.7083 9.59546 12.7083 9.99996C12.7083 10.7572 12.6168 11.6123 12.4768 12.4768C11.6123 12.6168 10.7572 12.7083 9.99996 12.7083C9.24614 12.7083 8.39133 12.617 7.52306 12.4765C7.38314 11.6121 7.29163 10.7571 7.29163 9.99996C7.29163 9.59559 7.31773 9.16333 7.36336 8.71663C8.27463 8.86251 9.18368 8.95829 9.99998 8.95829C10.8163 8.95829 11.7253 8.86251 12.6366 8.71663Z" fill="#070B1D"/>
<path d="M13.8692 8.49156C13.9256 9.01417 13.9583 9.52301 13.9583 9.99996C13.9583 10.6959 13.8886 11.4594 13.7777 12.2343C15.3511 11.906 16.8056 11.4865 17.5846 11.2478C17.8364 11.1706 17.9353 11.1399 18.0681 11.0868C18.1344 11.0603 18.1952 11.0333 18.2745 10.9954C18.3133 10.669 18.3333 10.3368 18.3333 9.99996C18.3333 9.1095 18.1936 8.25166 17.935 7.44715L17.8676 7.46835C17.053 7.71619 15.5279 8.15432 13.8692 8.49156Z" fill="#070B1D"/>
<path d="M17.4616 6.28526C16.6426 6.53346 15.2214 6.93678 13.6983 7.25078C13.3474 5.11842 12.7325 2.99163 12.4366 2.02851C14.6367 2.70017 16.4502 4.25763 17.4616 6.28526Z" fill="#070B1D"/>
<path d="M12.4695 7.47797C11.6074 7.61727 10.755 7.70829 9.99998 7.70829C9.24498 7.70829 8.39263 7.61727 7.53046 7.47797C7.86084 5.46032 8.45061 3.39921 8.75216 2.4153C8.82934 2.1635 8.86002 2.0646 8.91313 1.93185C8.93965 1.86553 8.96665 1.80471 9.00451 1.72547C9.33091 1.68661 9.6631 1.66663 9.99996 1.66663C10.3518 1.66663 10.6986 1.68844 11.0391 1.73078C11.0463 1.7584 11.053 1.78312 11.0596 1.80651C11.0791 1.87562 11.1096 1.97274 11.1609 2.1357L11.1663 2.15282C11.4234 2.96998 12.1046 5.24918 12.4695 7.47797Z" fill="#070B1D"/>
<path d="M6.30158 7.25075C6.65084 5.1278 7.26175 3.01247 7.55704 2.04901L7.56332 2.02851C5.36327 2.70016 3.54972 4.25762 2.53833 6.28525C3.35725 6.53344 4.77849 6.93675 6.30158 7.25075Z" fill="#070B1D"/>
<path d="M2.06491 7.44714C1.80629 8.25166 1.66663 9.1095 1.66663 9.99996C1.66663 10.3483 1.688 10.6917 1.72951 11.0288L1.86084 11.0726L1.86188 11.0729L1.86317 11.0733L1.86408 11.0736C1.90635 11.0876 3.14524 11.4968 4.77677 11.9027C5.23715 12.0172 5.72462 12.1305 6.22223 12.2342C6.11127 11.4594 6.04163 10.6959 6.04163 9.99996C6.04163 9.52285 6.07436 9.01402 6.13069 8.49154C4.47161 8.15422 2.94614 7.71592 2.13168 7.46812L2.12602 7.4664L2.06491 7.44714Z" fill="#070B1D"/>
<path d="M9.99996 13.9583C10.6959 13.9583 11.4594 13.8886 12.2343 13.7777C11.906 15.3511 11.4865 16.8055 11.2478 17.5846C11.1706 17.8364 11.1399 17.9353 11.0868 18.0681C11.0603 18.1344 11.0333 18.1952 10.9954 18.2745C10.669 18.3133 10.3368 18.3333 9.99996 18.3333C9.6631 18.3333 9.33091 18.3133 9.00451 18.2745C8.96665 18.1952 8.93965 18.1344 8.91313 18.0681C8.86003 17.9353 8.82934 17.8364 8.75217 17.5846C8.51341 16.8056 8.09397 15.3513 7.76566 13.7779C8.538 13.8885 9.30159 13.9583 9.99996 13.9583Z" fill="#070B1D"/>
<path d="M4.47496 13.1157C3.44324 12.859 2.56452 12.6012 2.0285 12.4366C2.83534 15.0795 4.92045 17.1646 7.56332 17.9714L7.55704 17.9509C7.29921 17.1096 6.80073 15.3902 6.44592 13.5542C5.75591 13.4208 5.08506 13.2675 4.47496 13.1157Z" fill="#070B1D"/>
<path d="M17.9509 12.4429C17.1096 12.7007 15.3901 13.1992 13.554 13.554C13.1992 15.39 12.7007 17.1096 12.4429 17.9509L12.4366 17.9714C15.0795 17.1646 17.1646 15.0795 17.9714 12.4366L17.9509 12.4429Z" fill="#070B1D"/>
<path d="M1.75417 11.0499C1.78302 11.0537 1.80653 11.0576 1.81433 11.0594C1.82117 11.0611 1.83187 11.0639 1.83576 11.065L1.84433 11.0675L1.84895 11.0688L1.85381 11.0703L1.85788 11.0716C1.85559 11.0709 1.80929 11.0593 1.75417 11.0499Z" fill="#070B1D"/>
</svg>
