<svg width="24" height="19" viewBox="0 0 24 19" fill="none" xmlns="http://www.w3.org/2000/svg">
<path d="M7.91714 6.25186C7.99564 6.24306 8.16498 6.2581 8.56767 6.45606C8.96517 6.65147 9.47348 6.96335 10.212 7.41788C10.9503 7.87221 11.4583 8.18578 11.8166 8.45561C12.175 8.72553 12.2884 8.88429 12.3328 8.99039C12.4679 9.31382 12.4679 9.68618 12.3328 10.0096C12.2884 10.1157 12.175 10.2745 11.8166 10.5444C11.4583 10.8142 10.9503 11.1278 10.212 11.5821C9.47348 12.0366 8.96517 12.3485 8.56767 12.5439C8.16498 12.7419 7.99564 12.7569 7.91714 12.7481C7.62562 12.7155 7.3454 12.5508 7.15563 12.2724C7.09155 12.1784 7.01635 11.9862 6.9753 11.5092C6.93475 11.038 6.93408 10.4068 6.93408 9.5C6.93408 8.59324 6.93475 7.96196 6.9753 7.4908C7.01635 7.01375 7.09155 6.82161 7.15563 6.72759C7.3454 6.44918 7.62562 6.28452 7.91714 6.25186Z" fill="#9DB2CE"/>
<path fill-rule="evenodd" clip-rule="evenodd" d="M9.21764 0.75H9.15052C7.77881 0.749996 6.70337 0.749992 5.83902 0.820612C4.95888 0.892522 4.23177 1.04138 3.57364 1.37671C2.4917 1.92798 1.61207 2.80762 1.06079 3.88955C0.725461 4.54769 0.576605 5.2748 0.504694 6.15494C0.434074 7.01928 0.434078 8.09472 0.434082 9.46643V9.53356C0.434078 10.9053 0.434074 11.9807 0.504694 12.8451C0.576605 13.7252 0.725461 14.4523 1.06079 15.1104C1.61207 16.1924 2.4917 17.072 3.57364 17.6233C4.23177 17.9586 4.95888 18.1075 5.83902 18.1794C6.70329 18.25 7.77862 18.25 9.15016 18.25H9.21766C10.5892 18.25 11.6649 18.25 12.5291 18.1794C13.4093 18.1075 14.1364 17.9586 14.7945 17.6233C15.8765 17.072 16.7561 16.1924 17.3074 15.1104C17.3574 15.0123 17.4033 14.9125 17.4454 14.8109C18.6121 15.3206 19.5675 15.7344 20.343 15.9448C21.1679 16.1686 21.9715 16.2147 22.6898 15.7446C23.4081 15.2746 23.6876 14.5198 23.8129 13.6743C23.9341 12.8556 23.9341 11.7757 23.9341 10.4502V8.54982C23.9341 7.22426 23.9341 6.14436 23.8129 5.32567C23.6876 4.48019 23.4081 3.7254 22.6898 3.25537C21.9715 2.78534 21.1679 2.83144 20.343 3.05522C19.5675 3.26561 18.6121 3.67938 17.4454 4.18909C17.4033 4.08748 17.3574 3.98774 17.3074 3.88955C16.7561 2.80762 15.8765 1.92798 14.7945 1.37671C14.1364 1.04138 13.4093 0.892522 12.5291 0.820612C11.6648 0.749992 10.5894 0.749996 9.21764 0.75ZM10.9648 6.11986C10.2678 5.69089 9.69868 5.34061 9.22942 5.10993C8.75789 4.87812 8.26689 4.70329 7.75013 4.76118C7.00323 4.84486 6.34012 5.26076 5.91616 5.88278C5.62842 6.30493 5.52772 6.81731 5.48082 7.36218C5.43407 7.90543 5.43407 8.60168 5.43408 9.46407V9.53592C5.43407 10.3983 5.43407 11.0946 5.48082 11.6378C5.52772 12.1827 5.62842 12.6951 5.91616 13.1172C6.34012 13.7392 7.00323 14.1551 7.75013 14.2388C8.26689 14.2967 8.75789 14.1219 9.22942 13.8901C9.69867 13.6594 10.2678 13.3091 10.9648 12.8802L11.0309 12.8395C11.7285 12.4101 12.2975 12.06 12.7189 11.7426C13.1468 11.4204 13.5178 11.0645 13.7169 10.5877C14.0065 9.89437 14.0065 9.10563 13.7169 8.41227C13.5178 7.93552 13.1468 7.57963 12.7189 7.2574C12.2975 6.94001 11.7286 6.58987 11.0308 6.1605L10.9648 6.11986Z" fill="#9DB2CE"/>
</svg>
